# xmcd
#
# Track frame offsets: 
#        150
#        11172
#        23880
#        35612
#        48250
#        59800
#        72150
#        84347
#        96075
#        108725
#
# Disc length: 1599 seconds
#
# Revision: 1
# Processed by: cddbd v1.5.2PL0 Copyright (c) Steve Scherf et al.
# Submitted via: ExactAudioCopy v0.90b4
#
DISCID=85063d0a
DTITLE=Conway Twitty - Sings Songs Of Love
DYEAR=1995
DGENRE=Country
TTITLE0=Hello Darlin'
TTITLE1=I Can't Stop Loving You
TTITLE2=I'm Not Through Loving You Yet
TTITLE3=She Needs Someone To Hold Her (When She Cries)
TTITLE4=I Love You More Today
TTITLE5=I'm So Used To Loving You
TTITLE6=Linda On My Mind
TTITLE7=Lovin' What Your Lovin' Does To Me
TTITLE8=I've Already Loved You In My Mind
TTITLE9=She Loves Me
EXTD=
EXTT0=
EXTT1=
EXTT2=
EXTT3=
EXTT4=
EXTT5=
EXTT6=
EXTT7=
EXTT8=
EXTT9=
PLAYORDER=
